<svg width="72" height="72" viewBox="0 0 72 72" fill="none" xmlns="http://www.w3.org/2000/svg">
<g clip-path="url(#clip0_467_10835)">
<path d="M55.4064 27.3576C55.4064 24.6562 53.8311 21.8545 51.6559 20.4461C52.0021 18.4669 51.4246 16.542 50.0153 15.1265C48.6672 13.7729 46.7969 13.1036 44.9372 13.236C44.7387 12.47 44.3596 11.7722 43.8088 11.1702C42.321 9.54386 39.6937 8.71924 36.0001 8.71924C33.1652 8.71924 30.4308 9.3183 27.8727 10.4997C27.1676 10.8252 26.86 11.6608 27.1856 12.3659C27.5111 13.071 28.3464 13.3785 29.0518 13.053C30.8119 12.2402 32.6705 11.7505 34.5938 11.5905V53.7191H30.5734C29.9965 48.583 26.4185 43.4265 23.2293 38.8334C22.9217 38.3906 22.6175 37.9525 22.32 37.52C20.4138 34.7497 19.4062 31.5012 19.4062 28.1257C19.4062 25.7005 19.9181 23.3625 20.9277 21.1769C21.2533 20.4718 20.9458 19.6362 20.2407 19.3107C19.5356 18.985 18.7 19.2925 18.3745 19.9976C17.1928 22.5554 16.5938 25.2901 16.5938 28.1256C16.5938 32.0729 17.7726 35.8727 20.003 39.1141C20.303 39.55 20.6094 39.9913 20.9191 40.4374C23.9062 44.7393 27.259 49.5709 27.7735 53.9893C26.8195 54.4398 26.1562 55.4084 26.1562 56.5315V60.7503C26.1562 61.7887 26.7232 62.6951 27.5625 63.1822V67.7814C27.5625 70.1076 29.455 72.0001 31.7812 72.0001H40.2187C42.5449 72.0001 44.4374 70.1076 44.4374 67.7814V63.1822C45.2766 62.695 45.8436 61.7885 45.8436 60.7503V56.5315C45.8436 55.4066 45.1781 54.4364 44.2214 53.987C44.4036 52.3377 44.9796 50.5692 45.9958 48.5311C46.1051 48.4845 46.2139 48.4347 46.3219 48.3804C48.2044 47.4344 49.7619 45.2367 49.4405 42.2783C49.4761 42.2649 49.512 42.2514 49.5463 42.2379C51.4827 41.4717 52.9062 39.8221 53.3544 37.8257C53.7131 36.2283 53.4324 34.584 52.5839 33.1347C54.3759 31.7535 55.4064 29.6872 55.4064 27.3576ZM43.0313 56.5315V60.7503H28.9688V56.5315H43.0313ZM49.9381 31.4751C49.5335 31.6683 49.2453 32.0428 49.1621 32.4832C49.079 32.9238 49.211 33.3775 49.5172 33.7048C50.4809 34.7345 50.8793 36.0119 50.6102 37.2096C50.3623 38.3134 49.5973 39.193 48.5114 39.6227C47.653 39.9623 46.3271 40.1797 45.4426 39.9363C44.0327 39.5585 43.8424 39.0436 43.4633 38.0179C43.1428 37.1505 42.7038 35.9627 41.3854 35.0534C40.7461 34.6124 39.8705 34.7733 39.4293 35.4127C38.9883 36.052 39.1493 36.9278 39.7886 37.3687C40.3482 37.7547 40.529 38.191 40.8253 38.9929C41.2785 40.2191 41.8993 41.8985 44.7053 42.6504C45.2219 42.7927 45.7711 42.8522 46.3189 42.8522C46.4355 42.8522 46.5518 42.8486 46.6678 42.8436C46.7514 44.412 45.9529 45.4183 45.0594 45.8673C44.2217 46.2882 42.9193 46.3658 42.005 45.1999C41.5258 44.5887 40.6417 44.482 40.0306 44.9613C39.4195 45.4405 39.3126 46.3245 39.7919 46.9356C40.5802 47.9407 41.6224 48.5896 42.7551 48.8474C42.0231 50.581 41.5861 52.178 41.4211 53.7189H37.4063V30.7156C41.8458 30.6409 43.0567 28.4241 43.9432 26.7969C44.3877 25.9812 44.6867 25.4661 45.2107 25.1699C45.8869 24.7878 46.1252 23.9299 45.7431 23.2538C45.3609 22.5776 44.5028 22.3393 43.8269 22.7215C42.5755 23.4287 41.99 24.5033 41.4736 25.4516C40.7176 26.8391 40.1649 27.8515 37.4063 27.9042V11.5832C39.4742 11.7396 40.9873 12.2527 41.7336 13.0686C42.0099 13.3707 42.1798 13.7162 42.2493 14.112C40.8605 15.0078 40.2653 16.1632 39.845 17.299C39.5754 18.0275 39.9474 18.8365 40.6757 19.106C40.8367 19.1655 41.0014 19.1939 41.1637 19.1939C41.7351 19.1939 42.2726 18.8428 42.4826 18.2754C42.7908 17.4425 43.1175 16.7611 44.2082 16.2321C45.5209 15.7825 47.0463 16.131 48.0222 17.111C48.5619 17.653 49.366 18.8387 48.688 20.6903C48.4235 21.4127 48.7886 22.2134 49.5073 22.4876C51.1515 23.115 52.5937 25.3907 52.5937 27.3576C52.5939 29.1416 51.6011 30.6808 49.9381 31.4751Z" fill="#424752"/>
<path d="M36 5.90639C36.7767 5.90639 37.4062 5.27681 37.4062 4.50014V1.40625C37.4062 0.629578 36.7765 0 36 0C35.2235 0 34.5938 0.629578 34.5938 1.40625V4.50014C34.5938 5.27681 35.2233 5.90639 36 5.90639Z" fill="#424752"/>
<path d="M22.9701 8.36847C23.2305 8.81959 23.7032 9.07187 24.1892 9.07187C24.4277 9.07187 24.6695 9.01098 24.891 8.88315C25.5636 8.49489 25.7941 7.63483 25.4057 6.96222L23.8587 4.28275C23.4704 3.61 22.6102 3.37965 21.9377 3.76806C21.2651 4.15633 21.0347 5.01639 21.4231 5.689L22.9701 8.36847Z" fill="#424752"/>
<path d="M12.1575 15.9836L14.8369 17.5306C15.0584 17.6585 15.3002 17.7194 15.5388 17.7194C16.0248 17.7194 16.4974 17.4671 16.7579 17.0159C17.1463 16.3433 16.9158 15.4833 16.2432 15.095L13.5637 13.548C12.8914 13.1597 12.0312 13.3901 11.6428 14.0627C11.2544 14.7353 11.4849 15.5954 12.1575 15.9836Z" fill="#424752"/>
<path d="M13.7814 28.1255C13.7814 27.3488 13.1518 26.7192 12.3751 26.7192H9.28125C8.50458 26.7192 7.875 27.3488 7.875 28.1255C7.875 28.9022 8.50458 29.5317 9.28125 29.5317H12.3751C13.1518 29.5317 13.7814 28.9022 13.7814 28.1255Z" fill="#424752"/>
<path d="M14.8369 38.7205L12.1575 40.2674C11.4849 40.6556 11.2544 41.5157 11.6428 42.1883C11.9032 42.6394 12.3759 42.8917 12.8619 42.8917C13.1004 42.8917 13.3422 42.8308 13.5637 42.703L16.2432 41.1561C16.9158 40.7678 17.1463 39.9078 16.7579 39.2352C16.3696 38.5626 15.5094 38.3319 14.8369 38.7205Z" fill="#424752"/>
<path d="M47.1096 8.8833C47.3311 9.01127 47.5728 9.07202 47.8113 9.07202C48.2973 9.07202 48.7701 8.81974 49.0306 8.36862L50.5776 5.68915C50.966 5.01654 50.7355 4.15648 50.0629 3.76821C49.3901 3.37995 48.5302 3.61029 48.1419 4.2829L46.5949 6.96237C46.2065 7.63484 46.437 8.49504 47.1096 8.8833Z" fill="#424752"/>
<path d="M56.4616 17.7194C56.7001 17.7194 56.9418 17.6585 57.1633 17.5307L59.8429 15.9837C60.5156 15.5954 60.746 14.7353 60.3576 14.0627C59.9692 13.3902 59.1097 13.1596 58.4367 13.548L55.7571 15.095C55.0845 15.4833 54.854 16.3434 55.2424 17.016C55.503 17.4671 55.9755 17.7194 56.4616 17.7194Z" fill="#424752"/>
<path d="M62.7189 26.7192H59.625C58.8485 26.7192 58.2188 27.3488 58.2188 28.1255C58.2188 28.9022 58.8485 29.5317 59.625 29.5317H62.7189C63.4954 29.5317 64.1251 28.9022 64.1251 28.1255C64.1251 27.3488 63.4956 26.7192 62.7189 26.7192Z" fill="#424752"/>
<path d="M59.8429 40.2672L57.1633 38.7203C56.4904 38.3321 55.6307 38.5625 55.2424 39.2352C54.854 39.9078 55.0845 40.7678 55.7571 41.1562L58.4367 42.7031C58.6582 42.8309 58.8999 42.8917 59.1384 42.8917C59.6244 42.8917 60.0972 42.6394 60.3576 42.1883C60.746 41.5155 60.5156 40.6555 59.8429 40.2672Z" fill="#424752"/>
<path d="M23.2719 13.9912C22.4952 13.9912 21.8662 14.6208 21.8662 15.3975C21.8662 16.1741 22.4962 16.8037 23.2729 16.8037C24.0496 16.8037 24.6791 16.1741 24.6791 15.3975C24.6791 14.6208 24.0496 13.9912 23.2729 13.9912H23.2719Z" fill="#424752"/>
</g>
<defs>
<clipPath id="clip0_467_10835">
<rect width="72" height="72" fill="white"/>
</clipPath>
</defs>
</svg>
