<?xml version="1.0" encoding="UTF-8"?>
<svg id="Layer_2" data-name="Layer 2" xmlns="http://www.w3.org/2000/svg" viewBox="0 0 1149.44 1438.79">
  <defs>
    <style>
      .cls-1 {
        fill: #4f2c45;
      }

      .cls-2 {
        fill: #944f77;
      }
    </style>
  </defs>
  <g id="Layer_1-2" data-name="Layer 1">
    <g>
      <path class="cls-2" d="M1117.13,767.28c-3.85,2.05-7.89,3.75-11.76,5.76-38.39,19.93-44.64,34.03-28.43,73.45,6.93,16.87,9.23,30.14-7.14,42.14-7.54,5.52-9.4,13.09-2.28,20.57,11.48,12.06,9.74,23.38-1.45,34.21-27.55,26.64-32.66,55.7-19.6,93.01,18.72,53.48-23.22,106.8-80.28,108.39-28.67.8-56.34-6.5-84.51-9.59-48.25-5.29-125.15,10.64-150.43,56.05-9.64,17.31-14.3,36.87-18.86,56.14-10.56,44.63-21.11,89.26-31.67,133.88-4.51,19.05-9.02,38.22-12.62,57.5H85.62c63.12-74.66,108.43-159.04,129.55-255.61,38.29-175.06,8.35-333.89-115.32-469.81C-81.89,513.65-13.61,134.67,289.02,25.1,368.32-3.62,450.62-2.79,533,3.76c91.44,7.28,179.54,27.91,261.76,70.27,134.48,69.3,205.72,184.25,237.54,327.83,4.43,20-1.5,39.16-5.82,58.2-7.35,32.37-5.51,63.39,8.56,93.75,23.16,50,52.17,95.72,92.73,133.74,32.39,30.35,28.17,59.12-10.64,79.73Z"/>
      <g>
        <path class="cls-1" d="M558.99,633.32c-3.6-1.5-1.75-4.15-2.57-9.02-.34-2.05-6.53-14.79-6.35-15.05-7.08,10.23-13.64,18.38-18.63,27.4-3.09,5.57,1.76,7.21,6.67,7.17-1.83,17.79,10.71,18.52,22.56,17.48,7.01-.61,14.48-4.67,14.18-13.85-.13-4.21.62-10.03-2.89-13.17-4.45-3.99-7.83.61-12.03-.64-.35-.1-.65-.21-.93-.33Z"/>
        <path class="cls-1" d="M891.68,352.75c3.64-1.43,9.71,14.43,10.81,17.28,4.78,12.32,7.3,25.38,9.05,38.44,4.72,35.25-15,67.9-48.67,78.15-20.05,6.1-34.98,19.23-52.12,29.92,41.07,2.55,80.69.76,110.27-34,32.91-38.69,32.66-82.05,16.95-127.07-4.13-11.85-12.81-21.66-24.07-27.22-8.6-4.25-19.17-12.9-27.59-7.22-6.69,4.51,3.28,10.68,2.77,15.71-.58,5.7-5.58,1.33-8.39-1.03-7.31-6.13-11.98-14.54-18.54-21.31-10.59-10.91-22.1-20.95-34.59-29.63-9.89-6.87-18.69-8.75-30.25-7.24-16.01,2.09-15.43,7.01-7.8,19.34,15.74,25.42,34.81,48.1,53.34,71.34,22.6,28.34,21.56,42.25-4.53,67.34-9.14,8.79-19.51,16.3-29.64,24.65,24.96,16.14,48.76,18.17,65.43,5.86,23.47-17.33,31.64-40.55,25.85-68.95-2.5-12.25-13.19-28.34-10.14-41.06.48-1.99,1.12-3,1.86-3.29Z"/>
        <path class="cls-1" d="M698.89,314.83c-.09.15-.19.29-.3.43-2.27,2.94-6.77,2.67-10.35,1.65-9.75-2.76-21.75,1.4-31.87,3.22-10.18,1.83-20.29,4.28-29.97,7.96-19.59,7.46-36.29,20.17-47.86,37.75-23.96,36.4-42.49,76.21-58.92,116.54-15.13,37.13-10.99,59.12,19.52,80.33,26.88,18.69,39.97,44.48,53.27,71.86,8.39,17.28,1.74,29.03-12.84,35.71-12.91,5.92-26.24,13.07-41.17,12.83-11-.18-17.09,7.18-23.71,13.65-4.4,4.3-4.34,9,2.19,12.02,13.98,6.46,52.12-.11,63.44-11.95,9.03-9.44,17.7-19.46,25.04-30.23,11.32-16.62,27.01-34.51-3.43-48.64-1-.46-2.25-2.5-1.97-3.31,7.01-20.08-10.35-28.11-19.6-40.23-11.94-15.66-20.1-36.07-7.46-53.46,6.02-8.28,3.49,11.44,3.84,13.97,1.13,8.04,4.62,15.87,8.58,22.88,7.94,14.08,19.21,25.89,27.87,39.5,3.72,5.87,9.76,10.44,16.28,4.44,6.28-5.78-.32-10.54-3.73-14.71-12.83-15.71-26.06-31.09-38.94-46.77-3.61-4.4-9.8-14.54.67-15.99,7.57-1.05,7.36,6.8,9.52,11.36,3.34,7.05,10.53,13.74,15.55,19.66,10.61,12.51,21.79,24.6,30.91,38.28,9.92,14.89,8.49,43.7-3.45,56.11-18.08,18.8-37.06,36.73-55.16,55.51-3.49,3.62-13.38,4.78-8.98,12.38,4.74,8.19,12.4,4.17,19.26,1.17,21.42-9.38,34.84-27.93,51.37-43.13,27.29-25.09,23.58-54.12,13.89-83.96-10.19-31.36-34.66-52.67-55.43-76.92-8.2-9.58-33.9-11.06-22.14-35,8.06-16.4,14.36-33.58,30.89-43.73,8.65-5.31,17.36-10.53,26.29-15.35,14.06-7.59,28.53-14.41,42.45-22.24,13.4-7.54,30.37-16.98,36.04-32.32,2.4-6.48,2.21-13.36.81-20.05-1.04-4.96-6.86-12.52-5.53-17.61,2.35-9.01,11.88-.12,15.42,4.15,7.22,8.67,8.52,19.95,5.03,30.54-7.33,22.24-21.79,33.34-42.62,43.69-6.52,3.24-15.97,8.14-3.49,14.45,31.86,16.13,64.68,31.24,101.76,25.64,23.61-3.57,43.24-16.85,51.08-39.54,7.49-21.68-8.97-36.74-23.04-50.59-12.56-12.36-22.94-25.39-29.72-42.28-15.32-38.16-45.88-50.97-80.12-35.8-5.05,2.24-16.5,6.99-18.63,12.68-2.51,6.71,4.78,9.93,8.25,14.62,1.88,2.54,2.83,6.22,1.19,8.85Z"/>
        <path class="cls-1" d="M481.22,608.27c2.36-2.14,11.03,7.58,13.63,9.81,5.41,4.63,13.56,12.66,21.5,10.97,8.13-1.73,13.69-13.18,17.61-19.43,9.09-14.49,8.99-25.88-4.35-38.27-30.93-28.72-36.83-62.13-17.28-100.46,16.47-32.29,30.93-65.61,46.79-98.22,4.94-10.16,6.25-15.94-8.38-15.48-33.52,1.05-62.29,11.5-84.32,38.1-16.16,19.52-24.09,43.02-32.88,65.96-25.98,67.81-25.65,67.93,21.35,124.77.79.96.65,2.69.9,4.07-16.64,6.02-27.13,23.76-19.79,34.63,12.41,18.38,25.08,36.63,38.54,54.25,11.46,14.99,24.5,13.25,34.52-2.67,11.41-18.13,3.22-31.82-9.19-44.48-5.22-5.32-17.78-11.28-19.08-19.64-.34-2.17-.13-3.38.44-3.9Z"/>
        <path class="cls-1" d="M566.23,234.48c.98-.77,2.87-1.12,5.99-.82,7.26.7,13.31,6.42,20.47,7.54,10.78,1.69,21.74-.06,31.84-4.02,26.73-10.49,49.59-26.53,68.13-49.03,9.29-11.28,7.1-17.03-6.1-18.25-28.22-2.61-56.22-8.05-84.78-6.71-33.02,1.55-58.74,19.44-84.38,37.39-12.75,8.93-14.28,19.32-6.01,33.49,14.99,25.67,34.49,46.83,58.1,64.33,34.89,25.87,64,22.39,97.01-6.88,30.58-27.11,64.95-44.88,107.38-25.69,9.74,4.41,20.24,1.89,26.71-4.21,8.31-7.83,1.78-19.26.24-28.88-1.67-10.51-9.87-12.84-19.67-12.9-50.57-.33-102.4-7.69-146.04,28.14-2.72,2.23-6.47,3.22-9.78,4.69-19.02,8.47-39.11,5.47-54.58-8.43-3.9-3.5-6.91-7.86-4.53-9.74Z"/>
        <path class="cls-1" d="M357.36,378.79c-3.64-1.19-2.01-9.43-.4-13.93,3.69-10.28,10.14-19.81,14.67-29.76,2.52-5.53,9.97-11.59,1.28-16.63-7.52-4.36-12.56-15.06-24.25-10.74-30.16,11.15-40.52,43.44-21.46,69.24,4.64,6.28,11.51,10.95,17.53,16.16,25.53,22.05,27.8,34.83,8.78,60.97-5.48,7.54-5.32,13.2.42,19.09,8.09,8.31,16.59,16.24,25.2,24.01,10.21,9.21,17.4,6.07,23.98-5.24,13.62-23.4,21.77-49.1,32.27-73.8,13.7-32.25,37.69-51.87,70.16-63.76,18.06-6.61,37.36-5.69,55.11-12.4,15.73-5.94,17.62-14.05,4.71-24.64-14.02-11.5-28.93-21.92-43.44-32.82-7.63-5.74-16.39-6.26-25.03-4.14-35.84,8.78-67.91,24.37-95.14,50.18-8.5,8.06-16,17.09-23.15,26.35-4.43,5.75-10.27,17.67-16.99,21.04-1.88.94-3.27,1.14-4.26.81Z"/>
        <path class="cls-1" d="M205.71,185.12c-32.36,10.64-48.72,39.53-44.53,82.5,1.62,16.65-2.13,29.39-12.45,42.07-11.05,13.57-23.56,29.79-17.59,47.34,13.84,40.66,2.14,78.8-5.46,117.85-6.28,32.22,3.64,60.4,25.48,84.36,12.2,13.38,31.11,13.2,42.14.38,12.22-14.2,14.58-44.09,1.75-58.09-16.05-17.51-16.11-33.42-3.99-52.87,21.94-35.21,29.24-73.13,22.35-114.96-5.41-32.86-13.43-65.44-14.17-99.18-.37-16.95,8.9-32.25,6.49-49.4Z"/>
        <path class="cls-1" d="M235.52,681.62c2.73-.25,5.41-.71,8.02-1.38,14.61-3.73,19.79.44,24.05,12.66,17.9,51.41,70.19,79.15,123.71,66.09,6.93-1.69,13.89-6.29,21.12-3.03,14.97,6.75,26.5,3.24,36.65-14.83.06,24.32,12.6,28.14,29.12,26.62,21.77-2,43.53-4.42,63.48-14.11,8.82-4.28,21.31-7.99,18.98-20.69-2.58-14.05-16.14-9.26-25.45-10.13-39.62-3.69-78.62,26.62-118.84,2.27-1.87-1.13-5.68.52-8.43,1.36-21.14,6.47-42.27,3.21-62.47-2.63-62.17-17.96-97.37-74.46-149.64-106.8-3.17-1.96-5.82-10.24-.89-10.59,27.92-1.98,10.77-20.73,11.61-31.5.89-11.34-6.55-12.38-13.2-4.06-5.88,7.36-13.21,13.79-21.85,11.64-24.31-6.06-15.67,8.78-11.38,18,10.13,21.74,28.78,35.93,47.83,49.47,3.75,2.67,17.5,7.23,18.85,11.64,1.33,4.35-2.83,6.24-6.39,6.39-7.07.31-15.23-7.49-20.33-11.63-10.19-8.26-19.57-17.49-28-27.53-16.74-19.92-29.53-42.81-39.66-66.7-14.91-35.16-21.77-68.68-14.72-105.65,1.62-8.5,2.65-17.25,2.66-25.89,0-7.5-5.55-11.55-12.51-13.08-7.76-1.71-10.23,4.05-12.05,9.7-3.1,9.65-7.18,19.28-8.34,29.21-5.35,45.94-6.99,91.13,38.55,120.88,5.02,3.28,5.5,6.29,5.29,12.27-1.59,44.58,58.54,96.29,104.25,92.03Z"/>
        <path class="cls-1" d="M211.51,241.33c2.19,20.05,2.36,46.57,13.89,70.77,12.86,26.99,23.49,54.65,31.23,83.57,3.73,13.94,9.37,27.59,19.45,38.58,13.04,14.21,47.14,19.01,60.33,7.19,19.91-17.86-.91-30.29-8.73-42.37-12.09-18.68-24.83-37.19-22.57-59.87,2-19.99-5.81-32.23-19.71-44.93-27.54-25.17-29.96-57.85-8.62-88.01,5.03-7.11,11.1-13.49,16.16-20.59,10.39-14.58,10.99-31.83,1.42-44.92-10.55-14.43-25.25-3.98-37.29,2.18-37.97,19.43-44.61,54.58-45.58,98.41Z"/>
        <path class="cls-1" d="M475.48,197.98c-11.87-15.77-22.41-28.33-34.66-39.69-25.6-23.74-52.85-23.07-82.13-7.85-28.26,14.69-51.47,35.04-70.41,60.38-21.69,29.03-19.3,54.19,7.53,78.71,8.44,7.71,16.79,17.67,30.24,11.88,12.31-5.3,11.41-16.82,11.88-27.94,1.5-35.93,30.13-68.13,65.31-77.61,23.62-6.36,45.78,5.76,72.25,2.11Z"/>
        <path class="cls-1" d="M215.62,547.32c5.65,32.31,4.81,69.47,37.23,93.41,6.23,4.6,10.62,17.21,20.64,10.83,8.41-5.35,13.69-14.92,11.86-26.43-5.68-35.57-2.11-72.86-20.19-106.13-5.03-9.26-4.96-18.4-1.56-29.13,9.95-31.34,1.1-59.84-16.08-86.82-6.81-10.7-11.08-8.93-16.95.11-10.67,16.44-20.85,33.04-29.41,50.8-6.01,12.46-5.07,20.94,4.46,30.92,11.13,11.65,28.3,22.63,11.61,42.98-2.99,3.64-1.1,11.29-1.61,19.46Z"/>
        <path class="cls-1" d="M386.7,611.46c39.1-1.47,50.75-22.85,31.09-55.84-4.4-7.38-10.68-13.68-16.34-20.27-22.22-25.93-52.42-43.53-73.15-71.3-9.18-12.29-37.43-10.47-41.21,1.29-10.02,31.11-14.29,74.41,28.92,93.33,16.26,7.12,28.4,19.18,37.93,34.5,7.44,11.95,17.43,21.85,32.76,18.3Z"/>
        <path class="cls-1" d="M833.04,486.89c-51.27-17.83-99.32-33.45-146.52-51.32-35.12-13.3-58.41,4.29-80.64,26.52-8.92,8.92-8.98,18.85,0,28.94,33.61,37.79,88.39,51.14,137.92,31.76-24.17-2.59-46.82-1.53-68.18-8.78-9.23-3.13-25.32-5.26-21.63-16.45,5.53-16.77-4.31-18.7-13.88-23.08-5.38-2.46-9.55-5.02-9.42-12.39,26.78,7.41,46.42,28.35,73.25,29.95,20.61,1.23,40.47,5.1,59.61,11.98,25.78,9.26,45.74-1.56,69.48-17.15Z"/>
        <path class="cls-1" d="M365.94,269.11c0,2.91-.1,5.81.02,8.71,1.47,34.6,20.42,45.95,49.5,28.14,24.77-15.17,48.81-31.6,76.95-39.8,14.3-4.16,12.14-11.93,6.51-20.88-16.01-25.47-40.18-36.82-69.4-37.99-40.23-1.61-63.6,21.36-63.59,61.82Z"/>
        <path class="cls-1" d="M360.29,641.3c-6.13-5.11-1.01-23.54-3.18-29.03-3.74-9.49-12.55-16.47-20.31-22.59-9.1-7.18-19.28-13.01-29.16-19.15-7.83-4.87-12.87-5.5-13.75,6.77-4.93,69.22,78.49,132.89,145.02,110.16,6.04-2.06,12.88-4.03,12.25-12.93-1.25-17.46-35.65-46.65-53.37-48.17-6.67-.57-12.9,1.38-18.48,4.96-3.93,2.53-9.14,10.72-13.84,11.24-2.28.25-3.95-.24-5.18-1.26Z"/>
        <path class="cls-1" d="M644.89,116.21c-10.6-3.25-16.55-6.18-22.72-6.78-31.12-3-62.32-3.81-93.61-2.69-19.32.69-37.49,5.36-54.15,14.57-21.06,11.64-23.09,23.26-8.56,41.8,4.92,6.27,11.24,11.51,15.72,18.05,9.17,13.39,18.17,15.28,31.85,4.86,23.72-18.06,50.24-31.56,77.85-43.09,17.02-7.1,33.12-16.4,53.62-26.72Z"/>
        <path class="cls-1" d="M763.69,172.48c-22.84.09-44.33,2.63-60.81,19.71-3.72,3.85-10.67,7.62-7.73,14.16,2.95,6.56,10.44,4.27,15.73,3.56,23.73-3.19,47.27-6.03,71.45-4.4,16.55,1.12,27.23,8,28.06,23.73,1.85,35.24,27.97,51.62,51.35,70.46,5.65,4.55,11.3,9.2,19.34,3.48,7.84-5.57,8.15-12.97,7.18-21.26-4.62-39.1-84.2-116.45-124.56-109.43Z"/>
        <path class="cls-1" d="M308.12,172.39c10.02-7.36,17-13.87,25.14-18.23,28.27-15.12,54.68-37.83,90.9-23.16,5.19,2.1,13.17,8.46,17.62,1.39,4.83-7.68-.35-15.84-6.87-20.94-29.54-23.07-60.81-18.83-92.34-4.68-28.97,13-36.72,27.1-34.44,65.62Z"/>
        <path class="cls-1" d="M609.46,148.93c24.72.86,48.3,6.37,72.08,8.14,22.47,1.67,44.01,10.27,66.79,7.85,5.32-.56,13.25,2.7,14.58-5.3,1.26-7.57-5.26-11.47-11.79-13.53-4.78-1.51-10.63-4.12-14.68-2.64-12.35,4.52-20.55,1.71-27.66-9.31-2.36-3.66-8.5-5.05-13.09-7.08-34.13-15.05-59.32,6.8-86.23,21.86Z"/>
        <path class="cls-1" d="M147.66,292.07c-15.59.48-21.83,7.01-27.04,13.44-19.79,24.46-26.63,52.76-21.12,83.55,2.28,12.73,10.5,26.39,23.44,23.69,10.72-2.24,3.05-17.77,4.63-27.24.23-1.37.05-3-.49-4.29-13.35-32.27-6.65-60.79,20.57-89.15Z"/>
        <path class="cls-1" d="M361.22,715.41c8.38,0,11.33.34,14.16-.08,6.69-1.01,17.04,1.76,17.81-7.42.67-7.9-9.35-6.74-15.26-8.62-25.67-8.16-48.8-21.28-70.61-36.83-5.03-3.59-8.95-10.96-16.06-3.44-5.92,6.25-2.24,11.99,1.44,17.57,17.52,26.56,44.88,34.35,68.52,38.82Z"/>
        <path class="cls-1" d="M462.15,722.1c10.97-.22,20.44-2.33,20.76-11.09.26-7.1-9.63-6.69-15.88-7.71-9.92-1.62-19.82-3.44-29.79-4.67-5.17-.64-10.81.3-12.53,6.1-1.97,6.65,3.3,8.65,8.45,9.98,10.45,2.7,20.93,5.34,28.98,7.39Z"/>
      </g>
    </g>
  </g>
</svg>