<svg width="72" height="72" viewBox="0 0 72 72" fill="none" xmlns="http://www.w3.org/2000/svg">
<g clip-path="url(#clip0_467_11258)">
<path d="M61.1619 6.48717C59.7022 5.02439 57.761 4.21875 55.6957 4.21875H52.207V3.51562C52.207 1.57711 50.6299 0 48.6914 0H23.3789C21.4404 0 19.8633 1.57711 19.8633 3.51562V4.21875H16.3621C12.1067 4.21875 8.64071 7.68459 8.63593 11.9445L8.57813 64.257C8.57588 66.3245 9.37843 68.2688 10.838 69.7316C12.2977 71.1944 14.239 72 16.3043 72H55.6377C59.8933 72 63.3593 68.5342 63.3639 64.2742L63.4219 11.9617C63.4243 9.89409 62.6216 7.94981 61.1619 6.48717ZM24.082 4.21875H47.9883V8.4375H24.082V4.21875ZM59.1497 64.2694C59.1474 66.206 57.572 67.7812 55.6377 67.7812H16.3043C15.3655 67.7812 14.4831 67.4151 13.8196 66.7502C13.1562 66.0852 12.7914 65.2015 12.7924 64.2618L12.8502 11.9493C12.8523 10.0128 14.4277 8.4375 16.3621 8.4375H19.8633V9.14062C19.8633 11.0791 21.4404 12.6562 23.3789 12.6562H48.6914C50.6299 12.6562 52.207 11.0791 52.207 9.14062V8.4375H55.6957C56.6345 8.4375 57.5169 8.80369 58.1804 9.46856C58.8438 10.1334 59.2088 11.0173 59.2076 11.9569L59.1497 64.2694Z" fill="#424752"/>
<path d="M26.885 26.4994C26.7018 25.7744 26.3113 25.1492 25.7558 24.6915C25.2145 24.2456 24.5515 24 23.8889 24C23.3809 24 22.8962 24.138 22.4485 24.4102C22.0949 24.6252 21.7769 24.9177 21.4991 25.2827C20.8672 24.4516 20.033 24 19.1104 24C18.448 24 17.7852 24.2456 17.2441 24.6915C16.6887 25.1492 16.2983 25.7744 16.115 26.4993C15.9159 27.2877 15.8773 28.5476 16.825 30.0727C17.7023 31.4844 19.2229 32.7924 21.3447 33.9603C21.3928 33.9867 21.4459 34 21.499 34C21.5521 34 21.6052 33.9868 21.6532 33.9603C23.7757 32.7923 25.2968 31.4843 26.1744 30.0727C27.1225 28.5476 27.0842 27.2877 26.885 26.4994ZM21.499 33.3036C18.9839 31.8911 17.7393 30.4902 17.1478 29.3252H18.0486C18.1707 29.3252 18.2822 29.2555 18.3368 29.1455L18.7388 28.334L19.8311 30.5385C19.8856 30.6487 19.9973 30.7183 20.1193 30.7183C20.2413 30.7183 20.3529 30.6487 20.4075 30.5385L21.4997 28.334L21.9018 29.1455C21.9565 29.2556 22.068 29.3252 22.19 29.3252H24.6337C24.8116 29.3252 24.9559 29.1796 24.9559 29C24.9559 28.8205 24.8116 28.6749 24.6337 28.6749H22.3892L21.788 27.4615C21.7334 27.3513 21.6219 27.2818 21.4997 27.2818C21.3777 27.2818 21.2662 27.3513 21.2116 27.4615L20.1193 29.666L19.027 27.4615C18.9724 27.3513 18.8609 27.2818 18.7388 27.2818C18.6167 27.2818 18.5052 27.3513 18.4506 27.4615L17.8494 28.6749H16.8726C16.5533 27.7328 16.6512 27.0093 16.7395 26.66C17.0385 25.4768 18.0134 24.6503 19.1104 24.6503C19.94 24.6503 20.6905 25.1395 21.2234 26.0275C21.2817 26.1248 21.3862 26.1843 21.4989 26.1843C21.6115 26.1843 21.7162 26.1249 21.7746 26.0276C22.3079 25.1395 23.0588 24.6503 23.8889 24.6503C24.9863 24.6503 25.9615 25.4768 26.2606 26.66C26.4679 27.4808 26.7291 30.367 21.499 33.3036Z" fill="#424752"/>
<path d="M26.885 39.4994C26.7018 38.7744 26.3113 38.1492 25.7558 37.6915C25.2145 37.2456 24.5515 37 23.8889 37C23.3809 37 22.8962 37.138 22.4485 37.4102C22.0949 37.6252 21.7769 37.9177 21.4991 38.2827C20.8672 37.4516 20.033 37 19.1104 37C18.448 37 17.7852 37.2456 17.2441 37.6915C16.6887 38.1492 16.2983 38.7744 16.115 39.4993C15.9159 40.2877 15.8773 41.5476 16.825 43.0727C17.7023 44.4844 19.2229 45.7924 21.3447 46.9603C21.3928 46.9867 21.4459 47 21.499 47C21.5521 47 21.6052 46.9868 21.6532 46.9603C23.7757 45.7923 25.2968 44.4843 26.1744 43.0727C27.1225 41.5476 27.0842 40.2877 26.885 39.4994ZM21.499 46.3036C18.9839 44.8911 17.7393 43.4902 17.1478 42.3252H18.0486C18.1707 42.3252 18.2822 42.2555 18.3368 42.1455L18.7388 41.334L19.8311 43.5385C19.8856 43.6487 19.9973 43.7183 20.1193 43.7183C20.2413 43.7183 20.3529 43.6487 20.4075 43.5385L21.4997 41.334L21.9018 42.1455C21.9565 42.2556 22.068 42.3252 22.19 42.3252H24.6337C24.8116 42.3252 24.9559 42.1796 24.9559 42C24.9559 41.8205 24.8116 41.6749 24.6337 41.6749H22.3892L21.788 40.4615C21.7334 40.3513 21.6219 40.2818 21.4997 40.2818C21.3777 40.2818 21.2662 40.3513 21.2116 40.4615L20.1193 42.666L19.027 40.4615C18.9724 40.3513 18.8609 40.2818 18.7388 40.2818C18.6167 40.2818 18.5052 40.3513 18.4506 40.4615L17.8494 41.6749H16.8726C16.5533 40.7328 16.6512 40.0093 16.7395 39.66C17.0385 38.4768 18.0134 37.6503 19.1104 37.6503C19.94 37.6503 20.6905 38.1395 21.2234 39.0275C21.2817 39.1248 21.3862 39.1843 21.4989 39.1843C21.6115 39.1843 21.7162 39.1249 21.7746 39.0276C22.3079 38.1395 23.0588 37.6503 23.8889 37.6503C24.9863 37.6503 25.9615 38.4768 26.2606 39.66C26.4679 40.4808 26.7291 43.367 21.499 46.3036Z" fill="#424752"/>
<path d="M32.2641 31.249H53.488C55.2286 31.249 56.6447 29.8329 56.6447 28.0923C56.6447 26.3516 55.2286 24.9355 53.488 24.9355H32.2641C30.5235 24.9355 29.1074 26.3516 29.1074 28.0923C29.1074 29.8329 30.5235 31.249 32.2641 31.249ZM32.2641 26.9505H53.488C54.1176 26.9505 54.6298 27.4627 54.6298 28.0923C54.6298 28.7219 54.1176 29.2341 53.488 29.2341H32.2641C31.6345 29.2341 31.1223 28.7219 31.1223 28.0923C31.1223 27.4627 31.6345 26.9505 32.2641 26.9505Z" fill="#424752"/>
<path d="M32.2641 44.5752H53.488C55.2286 44.5752 56.6447 43.1591 56.6447 41.4184C56.6447 39.6778 55.2286 38.2617 53.488 38.2617H32.2641C30.5235 38.2617 29.1074 39.6778 29.1074 41.4184C29.1074 43.1591 30.5235 44.5752 32.2641 44.5752ZM32.2641 40.2766H53.488C54.1176 40.2766 54.6298 40.7888 54.6298 41.4184C54.6298 42.048 54.1176 42.5602 53.488 42.5602H32.2641C31.6345 42.5602 31.1223 42.048 31.1223 41.4184C31.1223 40.7888 31.6345 40.2766 32.2641 40.2766Z" fill="#424752"/>
<g clip-path="url(#clip1_467_11258)">
<path d="M49.5 50.0625C45.7925 50.0625 42.75 53.105 42.75 56.8125C42.75 60.52 45.7925 63.5625 49.5 63.5625C53.2075 63.5625 56.25 60.52 56.25 56.8125C56.25 53.105 53.2075 50.0625 49.5 50.0625ZM48.6831 59.8827L45.7272 56.9268L46.8458 55.8083L48.7349 57.6974L52.5273 54.2498L53.5918 55.4201L48.6831 59.8827Z" fill="#424752"/>
</g>
</g>
<defs>
<clipPath id="clip0_467_11258">
<rect width="72" height="72" fill="white"/>
</clipPath>
<clipPath id="clip1_467_11258">
<rect width="13.5" height="13.5" fill="white" transform="translate(42.75 50.0625)"/>
</clipPath>
</defs>
</svg>
