<svg width="72" height="72" viewBox="0 0 72 72" fill="none" xmlns="http://www.w3.org/2000/svg">
<g clip-path="url(#clip0_485_11597)">
<path d="M38.8356 48.9751L37.6518 50.1141L42.92 55.1822H19.5469V56.793H42.92L37.6518 61.8611L38.8356 63.0001L46.125 55.9876L38.8356 48.9751Z" fill="#424752"/>
</g>
<path d="M47.5225 27.491H45.7308C45.5123 27.491 45.3352 27.6681 45.3352 27.8865C45.3352 28.1049 45.5123 28.282 45.7308 28.282H47.5225C48.1767 28.282 48.709 28.8143 48.709 29.4685V45.3076C48.709 45.3222 48.6972 45.334 48.6826 45.334H44.2804V43.752H46.3007C46.7494 43.752 47.116 43.3869 47.1181 42.9383L47.127 40.9908C47.1311 40.5439 46.7552 40.1675 46.3096 40.1697H44.2804V38.6106H46.3007C46.7494 38.6106 47.116 38.2456 47.1181 37.7969L47.127 35.8494C47.1311 35.4025 46.7552 35.0262 46.3096 35.0283H44.2804V33.4463H46.3007C46.7494 33.4463 47.116 33.0813 47.1181 32.6326L47.127 30.6851C47.1311 30.2382 46.7552 29.8618 46.3096 29.864H44.2804V25.7695C44.2804 24.6791 43.3933 23.792 42.3028 23.792H41.0471C40.8447 21.1846 38.6584 19.125 36 19.125C33.3416 19.125 31.1553 21.1846 30.9529 23.792H29.6719C28.5814 23.792 27.6943 24.6791 27.6943 25.7695V27.491H24.4775C23.3871 27.491 22.5 28.3781 22.5 29.4685V45.3076C22.5 45.7583 22.8667 46.125 23.3174 46.125H48.6826C49.1333 46.125 49.5 45.7583 49.5 45.3076V29.4685C49.5 28.3781 48.6129 27.491 47.5225 27.491ZM44.2804 30.6551H46.3096C46.3123 30.6551 46.3205 30.6551 46.3282 30.6628C46.3359 30.6706 46.3359 30.6788 46.3359 30.6815L46.3271 32.629C46.3271 32.6435 46.3152 32.6552 46.3008 32.6552H44.2804V30.6551ZM44.2804 35.8193H46.3096C46.3123 35.8193 46.3205 35.8193 46.3282 35.8271C46.3359 35.8348 46.3359 35.8431 46.3359 35.8458L46.3271 37.7933C46.3271 37.8077 46.3152 37.8195 46.3008 37.8195H44.2804V35.8193ZM44.2804 40.9607H46.3096C46.3123 40.9607 46.3205 40.9607 46.3282 40.9685C46.3359 40.9762 46.3359 40.9845 46.3359 40.9872L46.3271 42.9347C46.3271 42.9491 46.3152 42.9609 46.3008 42.9609H44.2804V40.9607ZM27.6943 42.9609H25.6994C25.6847 42.9609 25.6731 42.9495 25.673 42.9348L25.6641 40.9874C25.6641 40.9846 25.664 40.9762 25.6718 40.9685C25.6795 40.9607 25.6877 40.9607 25.6904 40.9607H27.6943V42.9609ZM27.6943 37.8193H25.6994C25.6847 37.8193 25.6731 37.8079 25.673 37.7932L25.6641 35.8458C25.6641 35.8431 25.664 35.8348 25.6719 35.8269C25.6796 35.8191 25.6877 35.8191 25.6904 35.8191H27.6943V37.8193ZM27.6943 32.6551H25.6994C25.6847 32.6551 25.6731 32.6436 25.673 32.629L25.6641 30.6815C25.6641 30.6788 25.664 30.6706 25.6719 30.6626C25.6796 30.6548 25.6877 30.6548 25.6904 30.6548H27.6943V32.6551ZM27.6943 29.8638H25.6904C25.2432 29.8613 24.8691 30.2388 24.873 30.6852L24.882 32.6326C24.8841 33.0812 25.2507 33.4461 25.6994 33.4461H27.6943V35.0281H25.6904C25.2432 35.0256 24.8691 35.4031 24.873 35.8494L24.882 37.7969C24.8841 38.2455 25.2507 38.6104 25.6994 38.6104H27.6943V40.1698H25.6904C25.2429 40.1673 24.8691 40.5444 24.873 40.9911L24.882 42.9386C24.884 43.387 25.2507 43.752 25.6994 43.752H27.6943V45.334H23.3174C23.3028 45.334 23.291 45.3222 23.291 45.3076V29.4685C23.291 28.8143 23.8233 28.282 24.4775 28.282H27.6943V29.8638ZM36 19.916C38.3553 19.916 40.2715 21.8322 40.2715 24.1875C40.2715 26.5428 38.3553 28.459 36 28.459C33.6447 28.459 31.7285 26.5428 31.7285 24.1875C31.7285 21.8322 33.6447 19.916 36 19.916ZM39.5345 45.334H36.3955V38.3691H39.5345V45.334ZM31.6745 37.5781V36.7871H40.3255V37.5781H31.6745ZM43.4893 45.334H40.3255V38.3691C40.7383 38.3931 41.1191 38.0911 41.1165 37.6572V36.708C41.1165 36.3155 40.7971 35.9961 40.4046 35.9961H31.5954C31.2029 35.9961 30.8835 36.3155 30.8835 36.708V37.6572C30.8807 38.0729 31.2547 38.4124 31.6745 38.3691V41.1698C31.6745 41.3882 31.8516 41.5653 32.07 41.5653C32.2884 41.5653 32.4655 41.3882 32.4655 41.1698V38.3691H35.6045V45.334H32.4655V43.0155C32.4655 42.7971 32.2884 42.62 32.07 42.62C31.8516 42.62 31.6745 42.7971 31.6745 43.0155V45.334H28.4854V25.7695C28.4854 25.1153 29.0176 24.583 29.6719 24.583H30.9529C31.1553 27.1904 33.3416 29.25 36 29.25C38.6584 29.25 40.8447 27.1904 41.0471 24.583H42.3028C42.9571 24.583 43.4893 25.1153 43.4893 25.7695V45.334ZM34.8135 25.374V26.9561C34.8135 27.3486 35.1328 27.668 35.5254 27.668H36.4746C36.8672 27.668 37.1865 27.3486 37.1865 26.9561V25.374H38.7686C39.1611 25.374 39.4805 25.0547 39.4805 24.6621V23.7129C39.4805 23.3203 39.1611 23.001 38.7686 23.001H37.1865V21.4189C37.1865 21.0264 36.8672 20.707 36.4746 20.707H35.5254C35.1328 20.707 34.8135 21.0264 34.8135 21.4189V23.001H33.2314C32.8389 23.001 32.5195 23.3203 32.5195 23.7129V24.6621C32.5195 25.0547 32.8389 25.374 33.2314 25.374H34.8135ZM33.3105 23.792H35.0508C35.3561 23.792 35.6045 23.5436 35.6045 23.2383V21.498H36.3955V23.2383C36.3955 23.5436 36.6439 23.792 36.9492 23.792H38.6895V24.583H36.9492C36.6439 24.583 36.3955 24.8314 36.3955 25.1367V26.877H35.6045V25.1367C35.6045 24.8314 35.3561 24.583 35.0508 24.583H33.3105V23.792ZM34.418 42.6519C34.6364 42.6519 34.8135 42.4748 34.8135 42.2564V41.4468C34.8135 41.2284 34.6364 41.0513 34.418 41.0513C34.1995 41.0513 34.0225 41.2284 34.0225 41.4468V42.2564C34.0225 42.4748 34.1995 42.6519 34.418 42.6519ZM34.3916 30.832H30.8955C30.4468 30.832 30.0801 31.1971 30.0781 31.6457L30.0693 33.5932C30.0646 34.0378 30.4402 34.4168 30.8867 34.4143H34.3916C34.8423 34.4143 35.209 34.0476 35.209 33.5969V31.6494C35.209 31.1987 34.8423 30.832 34.3916 30.832ZM34.418 33.5969C34.418 33.6114 34.4062 33.6233 34.3916 33.6233H30.8867C30.8762 33.6246 30.8589 33.6073 30.8603 33.5968L30.8691 31.6493C30.8692 31.6348 30.881 31.623 30.8955 31.623H34.3916C34.4062 31.623 34.418 31.6349 34.418 31.6494V33.5969ZM37.582 42.6519C37.8005 42.6519 37.9775 42.4748 37.9775 42.2564V41.4468C37.9775 41.2284 37.8005 41.0513 37.582 41.0513C37.3636 41.0513 37.1865 41.2284 37.1865 41.4468V42.2564C37.1865 42.4748 37.3636 42.6519 37.582 42.6519ZM41.1007 30.832H37.6084C37.1577 30.832 36.791 31.1987 36.791 31.6494V33.5969C36.791 34.0476 37.1577 34.4143 37.6084 34.4143H41.0918C41.5405 34.4143 41.9071 34.0493 41.9092 33.6006L41.918 31.6531C41.9222 31.2062 41.5462 30.8299 41.1007 30.832ZM41.1182 33.597C41.1181 33.6114 41.1063 33.6233 41.0918 33.6233H37.6084C37.5938 33.6233 37.582 33.6114 37.582 33.5969V31.6494C37.582 31.6349 37.5938 31.623 37.6084 31.623H41.1007C41.1034 31.623 41.1116 31.623 41.1193 31.6308C41.127 31.6386 41.127 31.6468 41.127 31.6495L41.1182 33.597Z" fill="#424752"/>
<path d="M63.2257 17.4926L46.3511 0.618047C45.9572 0.224016 45.4196 0 44.8594 0H15.3281C11.8388 0 9 2.8388 9 6.32812V65.6719C9 69.1612 11.8388 72 15.3281 72H57.5156C61.005 72 63.8438 69.1612 63.8438 65.6719V18.9844C63.8438 18.4092 63.6023 17.8691 63.2257 17.4926ZM46.9688 7.20183L56.6419 16.875H49.0781C47.915 16.875 46.9688 15.9287 46.9688 14.7656V7.20183ZM57.5156 67.7812H15.3281C14.165 67.7812 13.2188 66.835 13.2188 65.6719V6.32812C13.2188 5.16502 14.165 4.21875 15.3281 4.21875H42.75V14.7656C42.75 18.255 45.5888 21.0938 49.0781 21.0938H59.625V65.6719C59.625 66.835 58.6787 67.7812 57.5156 67.7812Z" fill="#424752"/>
<defs>
<clipPath id="clip0_485_11597">
<rect width="20.25" height="19.125" fill="white" transform="translate(25.875 43.875)"/>
</clipPath>
</defs>
</svg>
