<svg width="72" height="72" viewBox="0 0 72 72" fill="none" xmlns="http://www.w3.org/2000/svg">
<g clip-path="url(#clip0_467_11232)">
<g clip-path="url(#clip1_467_11232)">
<path d="M61.1619 6.48742C59.7022 5.02463 57.761 4.21899 55.6957 4.21899H52.207V3.51587C52.207 1.57735 50.6299 0.000244141 48.6914 0.000244141H23.3789C21.4404 0.000244141 19.8633 1.57735 19.8633 3.51587V4.21899H16.3621C12.1067 4.21899 8.64071 7.68484 8.63593 11.9448L8.57813 64.2573C8.57588 66.3248 9.37843 68.269 10.838 69.7318C12.2977 71.1946 14.239 72.0002 16.3043 72.0002H55.6377C59.8933 72.0002 63.3593 68.5344 63.3639 64.2744L63.4219 11.9619C63.4243 9.89434 62.6216 7.95006 61.1619 6.48742ZM24.082 4.21899H47.9883V8.43774H24.082V4.21899ZM59.1497 64.2697C59.1474 66.2062 57.572 67.7815 55.6377 67.7815H16.3043C15.3655 67.7815 14.4831 67.4153 13.8196 66.7504C13.1562 66.0854 12.7914 65.2017 12.7924 64.2621L12.8502 11.9496C12.8523 10.013 14.4277 8.43774 16.3621 8.43774H19.8633V9.14087C19.8633 11.0794 21.4404 12.6565 23.3789 12.6565H48.6914C50.6299 12.6565 52.207 11.0794 52.207 9.14087V8.43774H55.6957C56.6345 8.43774 57.5169 8.80393 58.1804 9.46881C58.8438 10.1337 59.2088 11.0175 59.2076 11.9572L59.1497 64.2697Z" fill="#424752"/>
<path d="M50.331 26.4362C49.8626 24.6418 48.8642 23.0945 47.4437 21.9616C46.0599 20.8581 44.3645 20.2502 42.6704 20.2502C41.3716 20.2502 40.1324 20.5919 38.9876 21.2656C38.0836 21.7977 37.2706 22.5215 36.5601 23.4249C34.9446 21.3681 32.8117 20.2502 30.4526 20.2502C28.759 20.2502 27.0645 20.8581 25.6809 21.9616C24.2608 23.0945 23.2626 24.6418 22.7942 26.436C22.285 28.3872 22.1863 31.5054 24.6095 35.2802C26.8525 38.774 30.7404 42.0113 36.1655 44.9019C36.2885 44.9673 36.4241 45.0002 36.5599 45.0002C36.6957 45.0002 36.8314 44.9675 36.9543 44.9019C42.381 42.0111 46.2702 38.7738 48.514 35.2802C50.9383 31.5054 50.8402 28.3874 50.331 26.4362ZM36.5599 43.2767C30.1293 39.7807 26.9471 36.3135 25.4347 33.43H27.7378C28.05 33.43 28.3352 33.2577 28.4747 32.9852L29.5027 30.9768L32.2954 36.433C32.4349 36.7057 32.7203 36.878 33.0323 36.878C33.3443 36.878 33.6297 36.7057 33.7691 36.433L36.5619 30.9768L37.5899 32.9852C37.7296 33.2579 38.0148 33.43 38.3267 33.43H44.5748C45.0297 33.43 45.3986 33.0697 45.3986 32.6253C45.3986 32.181 45.0297 31.8207 44.5748 31.8207H38.8359L37.2989 28.8175C37.1592 28.5448 36.8741 28.3727 36.5619 28.3727C36.2499 28.3727 35.9647 28.5448 35.8252 28.8175L33.0323 34.2737L30.2396 28.8175C30.0999 28.5448 29.8147 28.3727 29.5027 28.3727C29.1905 28.3727 28.9053 28.5448 28.7658 28.8175L27.2286 31.8207H24.7311C23.9147 29.4889 24.1651 27.6982 24.3908 26.8338C25.1554 23.9053 27.6479 21.8598 30.4526 21.8598C32.5739 21.8598 34.4927 23.0704 35.8552 25.2683C36.0044 25.5092 36.2715 25.6563 36.5597 25.6563H36.5599C36.8479 25.6563 37.1152 25.5094 37.2646 25.2685C38.6282 23.0704 40.548 21.8598 42.6704 21.8598C45.4762 21.8598 47.9698 23.9053 48.7344 26.8338C49.2646 28.8653 49.9324 36.0085 36.5599 43.2767Z" fill="#424752"/>
<g clip-path="url(#clip2_467_11232)">
<path d="M49.5 50.0627C45.7925 50.0627 42.75 53.1053 42.75 56.8127C42.75 60.5202 45.7925 63.5627 49.5 63.5627C53.2075 63.5627 56.25 60.5202 56.25 56.8127C56.25 53.1053 53.2075 50.0627 49.5 50.0627ZM48.6831 59.8829L45.7272 56.9271L46.8458 55.8085L48.7349 57.6976L52.5273 54.2501L53.5918 55.4204L48.6831 59.8829Z" fill="#424752"/>
</g>
</g>
</g>
<defs>
<clipPath id="clip0_467_11232">
<rect width="72" height="72" fill="white" transform="translate(0 0.000244141)"/>
</clipPath>
<clipPath id="clip1_467_11232">
<rect width="72" height="72" fill="white" transform="translate(0 0.000244141)"/>
</clipPath>
<clipPath id="clip2_467_11232">
<rect width="13.5" height="13.5" fill="white" transform="translate(42.75 50.0627)"/>
</clipPath>
</defs>
</svg>
